<svg width="428" height="424" xmlns="http://www.w3.org/2000/svg" xmlns:xlink="http://www.w3.org/1999/xlink" overflow="hidden"><g transform="translate(-426 -150)"><path d="M427 207 793 207 793 573 427 573ZM432.893 212.893 432.893 567.107 787.107 567.107 787.107 212.893Z" fill-rule="evenodd"/><path d="M588 327C588 300.49 609.49 279 636 279 662.51 279 684 300.49 684 327 684 353.51 662.51 375 636 375 609.49 375 588 353.51 588 327Z" fill-rule="evenodd"/><path d="M588 464 612 360 660 360 684 464Z" fill-rule="evenodd"/><path d="M457 178 823 178 823 544 457 544ZM462.893 183.893 462.893 538.107 817.107 538.107 817.107 183.893Z" fill-rule="evenodd"/><path d="M487 150 853 150 853 516 487 516ZM492.893 155.893 492.893 510.107 847.107 510.107 847.107 155.893Z" fill-rule="evenodd"/></g></svg>